<?xml version="1.0" encoding="utf-8"?>
<!-- Generator: Adobe Illustrator 25.0.1, SVG Export Plug-In . SVG Version: 6.00 Build 0)  -->
<svg version="1.1" id="Layer_1" xmlns="http://www.w3.org/2000/svg" xmlns:xlink="http://www.w3.org/1999/xlink" x="0px" y="0px"
	 viewBox="0 0 613.27 49.29" style="enable-background:new 0 0 613.27 49.29;" xml:space="preserve">
<g>
	<path d="M358.07,0.92c0,3.3,0,6.35,0,9.79c-1.21,0-2.27,0-3.33,0c-9.63,0-19.26-0.02-28.89,0.03c-1.13,0.01-2.54,0.09-3.32,0.74
		c-1.01,0.85-2.13,2.34-2.05,3.47c0.08,1.08,1.5,2.72,2.57,2.95c3.43,0.72,6.97,0.96,10.47,1.28c4.6,0.41,9.28,0.36,13.81,1.14
		c6.4,1.1,9.82,5.6,11,11.68c1.19,6.14-0.2,11.62-5.74,15.27c-1.35,0.89-3.18,1.45-4.8,1.46c-11.17,0.1-22.35-0.03-33.53,0.04
		c-2.03,0.01-2.76-0.6-2.63-2.64c0.15-2.25,0.03-4.51,0.03-7.29c1.07,0,2.1,0,3.13,0c9.81,0.02,19.63,0,29.44,0.1
		c2.52,0.03,4.31-0.71,4.81-3.3c0.53-2.74-1.15-5.64-3.78-6.03c-3.49-0.52-7.04-0.58-10.56-0.85c-4.25-0.33-8.62-0.16-12.71-1.13
		c-10.03-2.39-13.76-10.46-9.59-19.86c1.85-4.17,5.53-5.88,9.7-6.6c2.31-0.4,4.71-0.34,7.07-0.35c8.63-0.04,17.26-0.03,25.89-0.03
		C356.04,0.79,357.02,0.87,358.07,0.92z"/>
	<path d="M452.74,0.76c3.63,0,7.26,0.11,10.89-0.03c2.95-0.11,5.35,0.9,7.29,3c11.67,12.65,12.57,30.32-1.97,42.99
		c-1.54,1.34-4.06,2.07-6.18,2.17c-5.98,0.28-11.98-0.08-17.96,0.13c-6.05,0.21-10.49-2.49-13.9-7.11
		c-6.91-9.35-7.08-25.08-0.55-34.65c2.9-4.25,6.62-6.81,12.04-6.51c3.44,0.19,6.9,0.04,10.34,0.04
		C452.74,0.78,452.74,0.77,452.74,0.76z M452.04,10.68c-3.09,0-6.19,0.2-9.26-0.06c-2.88-0.25-4.43,1.16-5.5,3.46
		c-3.1,6.66-2.92,13.32,0.07,19.98c1.53,3.41,3.99,5.16,7.87,5.06c4.99-0.13,9.99,0.06,14.99-0.05c1.17-0.03,2.51-0.49,3.47-1.17
		c7.99-5.69,8.72-19.43,1.39-26.25c-0.64-0.59-1.77-0.89-2.68-0.92C458.94,10.62,455.49,10.68,452.04,10.68z"/>
	<path d="M276.29,48.62c-4.17,0-8.36,0.15-12.52-0.08c-1.6-0.09-3.42-0.71-4.68-1.67c-5.55-4.24-7.75-10.33-8.59-16.98
		c-0.82-6.48-0.38-12.88,2.42-18.89c0.94-2.02,2.22-3.96,3.66-5.67c2.62-3.11,5.85-4.79,10.21-4.6c6.79,0.3,13.62,0.28,20.41,0.01
		c5.03-0.2,8.37,2.16,10.66,6.14c5.54,9.63,6.13,19.69,2.18,30.06c-1.47,3.87-3.34,7.5-6.78,9.95c-1.24,0.89-2.93,1.51-4.45,1.59
		c-4.16,0.21-8.34,0.07-12.52,0.07C276.29,48.58,276.29,48.6,276.29,48.62z M276.98,10.74c-2.99,0-6,0.19-8.98-0.05
		c-3.41-0.27-5.27,1.42-6.41,4.29c-2.47,6.23-2.51,12.55-0.41,18.87c1.3,3.89,2.71,4.87,6.81,4.91c5.63,0.05,11.26-0.08,16.88,0.09
		c2.42,0.07,4.07-0.85,5.11-2.84c4.03-7.74,4.24-15.62,0.27-23.42c-0.47-0.92-2.07-1.68-3.2-1.76
		C283.71,10.59,280.34,10.74,276.98,10.74z"/>
	<path d="M416.94,48.89c-5.74,0-11.18,0.02-16.61,0c-5.36-0.02-10.71-0.16-16.07-0.11c-7.09,0.06-12.07-3.5-15.02-9.47
		c-5.54-11.2-4.92-22.27,2.28-32.66c2.68-3.86,6.48-5.88,11.37-5.85c10.44,0.07,20.88-0.01,31.33-0.02c0.88,0,1.76,0.09,2.74,0.15
		c0,3.3,0,6.34,0,9.77c-1.21,0-2.27,0-3.33,0c-9.81,0.01-19.61,0.12-29.42-0.03c-2.94-0.05-4.91,0.99-6.22,3.44
		c-3.78,7.08-3.87,14.21-0.04,21.29c1.19,2.2,2.96,3.45,5.7,3.44c10.08-0.01,20.15,0.14,30.23,0.22c0.97,0.01,1.94,0,3.07,0
		C416.94,42.44,416.94,45.47,416.94,48.89z"/>
	<path d="M194.62,38.64c1.34,0,2.32,0,3.29,0c8.45,0.01,16.9-0.09,25.34,0.08c5.78,0.11,9.41-2.7,11.65-7.7
		c1.6-3.58,1.98-7.32,1.09-11.17c-1.41-6.1-5.13-9.09-11.34-9.09c-8.9,0-17.8,0-26.71,0c-0.98,0-1.96,0-3.38,0
		c0-3.04-0.12-5.82,0.11-8.57c0.04-0.51,1.53-1.26,2.35-1.27c7.54-0.1,15.08-0.07,22.62-0.07c3.27,0,6.54,0.1,9.81-0.02
		c3.34-0.12,6.04,1.13,8.24,3.5c10.29,11.07,10.63,24.23,3.6,34.61c-4.12,6.08-9.66,9.88-17.5,9.66c-8.9-0.25-17.8-0.23-26.7-0.22
		c-1.86,0-2.63-0.53-2.51-2.46C194.72,43.66,194.62,41.4,194.62,38.64z"/>
	<path d="M48.81,38.38c0,3.07,0.1,5.77-0.08,8.45c-0.03,0.52-1.16,1.37-1.78,1.37c-11.08-0.02-22.17,0.09-33.24-0.35
		c-5.42-0.21-8.96-4.01-10.87-8.78C-1.1,29.21-0.92,19.2,3.25,9.42c2.35-5.5,6.3-8.75,12.85-8.57c9.99,0.27,19.99,0.12,29.98,0.03
		c2.16-0.02,3.02,0.44,2.96,2.83c-0.19,7.1-0.09,7.1-7.14,7.1c-8.18,0-16.35,0.1-24.53-0.05c-2.69-0.05-4.34,0.93-5.28,3.31
		c-2.72,6.87-2.79,13.78-0.24,20.71c0.99,2.68,3.02,3.59,5.77,3.58c9.27-0.04,18.53,0.01,27.8,0.03
		C46.47,38.38,47.53,38.38,48.81,38.38z"/>
	<path d="M613.23,0.7c0,3.06,0.15,5.77-0.12,8.44c-0.06,0.56-1.62,1.39-2.5,1.4c-9.99,0.1-19.98,0.18-29.96-0.01
		c-2.76-0.05-4.2,1.03-5.25,3.28c-2.78,5.95-3.05,12.07-1.06,18.26c1.8,5.6,4.05,7.19,9.99,7.23c8.44,0.06,16.89,0.04,25.33,0.06
		c1.07,0,2.14,0,3.46,0c0,3.29,0,6.31,0,9.68c-0.96,0.07-2,0.2-3.04,0.2c-9.26,0-18.53-0.31-27.78,0.04
		c-7.35,0.28-11.93-3.49-14.95-9.33c-5.03-9.73-5.22-19.86-0.79-29.91c2.71-6.15,7.13-9.64,14.38-9.42
		C591.55,0.94,602.17,0.7,613.23,0.7z"/>
	<path d="M487.84,30.48c0-3.21,0.06-5.47-0.02-7.73c-0.06-1.66,0.62-2.17,2.24-2.18c7.08-0.08,14.16-0.25,21.24-0.44
		c3.36-0.09,6.71-0.3,10.07-0.49c3.52-0.2,5.51-1.97,5.45-4.78c-0.05-2.29-2.27-4.14-5.5-4.16c-9.72-0.09-19.43-0.04-29.15-0.05
		c-1.34,0-2.67,0-4.21,0c-0.17-3.41-0.33-6.44-0.5-9.75c1.29-0.06,2.26-0.15,3.23-0.15c10.53-0.01,21.07-0.02,31.6,0
		c6.6,0.01,13.42,6.19,14.13,12.76c0.75,6.85-4.03,14.35-10.97,15.02C513.03,29.71,500.51,29.87,487.84,30.48z"/>
	<path d="M108.12,48.35c-3.26,0-5.97,0.15-8.65-0.1c-0.76-0.07-1.69-1.18-2.07-2.02c-4.82-10.75-9.55-21.54-14.31-32.31
		c-0.25-0.55-0.59-1.06-1.06-1.88C76.94,23.42,71.93,34.47,67.1,45.6c-0.91,2.09-2.03,2.79-4.27,2.75c-6.73-0.12-6.73-0.03-3.9-6.24
		c5.89-12.95,11.81-25.88,17.62-38.86c0.79-1.76,1.75-2.39,3.67-2.38c6.79,0.03,6.95-0.12,9.8,6.09
		c4.27,9.31,8.27,18.73,12.37,28.12C104.24,39.3,106.04,43.54,108.12,48.35z"/>
	<path d="M115.74,1.02c2.91,0,5.6,0,8.87,0c0,12.49,0,24.84,0,37.51c12.88,0,25.18,0,37.72,0c0,3.35,0,6.38,0,9.73
		c-0.84,0.05-1.71,0.15-2.58,0.15c-13.81,0-27.61-0.04-41.42,0.02c-1.83,0.01-2.59-0.47-2.6-2.42c-0.02-14.68-0.13-29.36-0.21-44.04
		C115.52,1.71,115.63,1.46,115.74,1.02z"/>
	<path d="M183.08,48.34c-3.34,0-6.29,0-9.54,0c-0.05-0.92-0.13-1.79-0.13-2.66c0.01-14.22,0.1-28.43,0.01-42.64
		c-0.01-2.4,0.65-3.08,3.06-3.03c6.39,0.15,6.41,0.04,6.44,6.42c0.06,12.86,0.1,25.71,0.15,38.57
		C183.09,45.98,183.08,46.96,183.08,48.34z"/>
	<path d="M546.29,0.91c2.97,0,5.65,0,8.51,0c0,16.06,0,31.95,0,48.03c-2.86,0-5.53,0-8.51,0C546.29,32.97,546.29,17.08,546.29,0.91z
		"/>
</g>
</svg>
